<?xml version="1.0" standalone="no"?>
<!DOCTYPE svg PUBLIC "-//W3C//DTD SVG 20010904//EN"
 "http://www.w3.org/TR/2001/REC-SVG-20010904/DTD/svg10.dtd">
<svg version="1.0" xmlns="http://www.w3.org/2000/svg"
 width="500.000000pt" height="500.000000pt" viewBox="0 0 500.000000 500.000000"
 preserveAspectRatio="xMidYMid meet">

<g transform="translate(0.000000,500.000000) scale(0.100000,-0.100000)"
fill="#000000" stroke="none">
<path d="M2384 4415 c-277 -60 -591 -312 -776 -621 -18 -30 -35 -54 -38 -54
-4 0 -21 16 -40 35 l-34 35 58 59 c66 67 66 68 -7 140 -37 35 -50 42 -71 37
-14 -3 -66 -50 -118 -106 -51 -55 -99 -100 -107 -100 -14 0 -55 34 -282 237
-121 108 -127 115 -131 158 -6 51 -44 107 -88 130 -41 21 -113 19 -159 -5
-114 -57 -115 -225 -3 -288 22 -12 55 -22 73 -22 28 0 41 -8 75 -48 23 -26
103 -117 178 -202 75 -85 136 -158 136 -162 0 -4 -45 -52 -101 -105 -55 -54
-105 -106 -111 -117 -8 -15 0 -28 48 -77 32 -33 63 -59 68 -59 6 0 37 26 69
58 l58 57 158 -165 158 -164 -12 -56 c-48 -226 -170 -514 -331 -781 -78 -131
-100 -205 -86 -289 10 -54 89 -223 188 -401 l37 -66 -69 -90 c-38 -50 -96
-140 -129 -199 -67 -121 -187 -412 -189 -458 -1 -26 3 -31 25 -34 37 -4 196
56 366 138 151 73 257 137 336 202 l47 40 188 -110 c502 -294 685 -392 730
-392 38 0 346 165 731 392 101 59 186 108 189 108 3 0 26 -17 51 -38 136 -113
345 -224 592 -313 91 -32 109 -36 125 -25 17 13 16 18 -15 107 -80 229 -188
442 -299 588 l-65 85 52 96 c122 223 165 319 169 380 7 102 -4 138 -85 276
-92 155 -198 373 -248 509 -52 139 -97 322 -86 343 6 9 77 84 160 167 l151
150 58 -58 c32 -31 62 -57 68 -57 5 0 36 27 68 59 l59 60 -26 35 c-15 19 -65
70 -112 113 -47 43 -85 82 -85 87 0 10 70 95 229 273 115 130 129 143 160 143
18 0 51 10 73 22 54 31 82 80 82 144 0 206 -308 224 -331 20 -6 -46 -7 -48
-200 -219 -106 -95 -202 -173 -212 -175 -11 -2 -49 31 -110 98 -52 55 -104
103 -118 106 -20 5 -33 -2 -70 -37 -73 -72 -73 -73 -9 -138 31 -31 56 -62 56
-69 0 -12 -48 -48 -54 -41 -2 2 -18 31 -37 64 -96 174 -262 364 -393 450 -203
132 -434 183 -632 140z m361 -50 c301 -88 554 -337 701 -692 53 -129 91 -291
109 -468 31 -313 127 -581 341 -957 l99 -173 0 -90 0 -90 -86 -165 c-159 -305
-253 -445 -344 -518 -146 -115 -1011 -612 -1066 -612 -51 0 -840 450 -1046
596 -105 75 -213 236 -370 549 -79 159 -85 175 -85 232 0 81 13 119 85 237
199 331 330 685 357 961 14 143 25 200 62 315 122 383 468 755 806 869 139 47
287 49 437 6z m-2006 -33 c40 -21 71 -73 71 -117 0 -44 -31 -96 -71 -117 -93
-50 -202 13 -202 117 0 104 109 167 202 117z m3658 -2 c45 -27 66 -64 66 -115
0 -138 -190 -186 -255 -64 -64 120 73 250 189 179z m-3494 -237 c34 -31 81
-74 104 -95 l43 -38 -47 -42 c-73 -68 -82 -73 -101 -55 -14 15 -11 21 36 71
49 51 59 66 47 66 -3 0 -30 -23 -61 -51 -31 -28 -57 -49 -58 -47 -1 2 -7 10
-14 20 -11 14 -6 24 33 67 69 78 55 79 -27 2 -31 -29 -40 -32 -53 -21 -21 17
-20 21 21 69 20 23 34 44 32 46 -3 3 -23 -11 -47 -31 -34 -30 -44 -34 -56 -24
-21 17 -19 25 10 38 13 6 35 27 47 47 13 19 24 35 26 35 1 0 30 -26 65 -57z
m3336 -28 c25 -8 26 -18 6 -35 -12 -10 -22 -6 -56 24 -24 20 -44 34 -47 31 -2
-2 12 -23 32 -46 41 -48 42 -52 21 -69 -13 -11 -22 -8 -53 21 -82 77 -96 76
-27 -2 39 -43 44 -53 33 -67 -7 -10 -14 -19 -15 -21 -2 -2 -28 20 -58 49 -73
68 -85 56 -15 -15 50 -51 53 -56 38 -71 -19 -19 -27 -15 -101 54 l-47 42 43
38 c23 21 70 64 105 96 l63 57 29 -40 c16 -21 38 -42 49 -46z m-2974 -445
l-310 -310 -45 45 -45 45 310 310 310 310 45 -45 45 -45 -310 -310z m2825
-265 l-45 -45 -310 310 -310 310 45 45 45 45 310 -310 310 -310 -45 -45z
m-3008 578 c10 -9 18 -20 18 -24 0 -4 -29 -33 -65 -65 -61 -53 -67 -56 -82
-41 -15 15 -11 21 43 81 32 35 61 65 63 65 3 1 13 -6 23 -16z m2922 -51 c55
-58 58 -64 43 -79 -14 -15 -19 -13 -64 24 -26 23 -57 50 -67 62 -19 20 -19 22
-1 41 10 11 21 19 24 18 3 -2 33 -31 65 -66z m-2862 1 c10 -9 18 -19 18 -23 0
-4 -32 -36 -71 -70 -67 -60 -72 -63 -85 -45 -12 16 -7 25 49 86 34 37 64 68
66 68 3 1 13 -6 23 -16z m2805 -54 c57 -59 61 -67 49 -84 -13 -18 -18 -15 -85
45 -39 34 -71 65 -71 68 0 9 33 43 39 40 3 -2 34 -33 68 -69z m-2742 1 c18
-20 18 -22 -56 -96 -74 -75 -74 -75 -91 -53 -18 21 -16 23 50 95 37 40 70 73
73 74 3 0 14 -9 24 -20z m2688 -56 c66 -70 67 -72 50 -93 l-18 -22 -74 75
c-74 74 -75 75 -56 96 10 11 21 19 25 18 3 -2 36 -35 73 -74z m-2383 -162
c-52 -119 -76 -207 -90 -329 -6 -54 -15 -113 -18 -131 l-7 -32 -145 145 -145
145 185 185 185 185 37 -38 38 -37 -40 -93z m2240 -347 c-92 -92 -147 -140
-151 -132 -3 6 -9 51 -13 98 -8 121 -41 273 -82 390 l-36 101 28 29 28 30 186
-186 185 -185 -145 -145z m-2490 -1907 c51 -81 145 -180 199 -208 20 -10 49
-30 65 -43 l29 -23 -79 -58 c-107 -78 -197 -130 -334 -192 -126 -57 -290 -117
-298 -110 -7 8 54 178 108 298 76 170 227 409 258 408 4 0 27 -33 52 -72z
m2579 25 c56 -66 154 -233 211 -361 54 -120 115 -290 108 -298 -6 -6 -149 44
-259 91 -149 64 -325 167 -423 248 l-30 24 75 50 c95 65 148 118 212 215 29
43 55 78 59 78 3 0 25 -21 47 -47z"/>
<path d="M2385 4304 c-151 -37 -339 -157 -486 -312 -229 -240 -349 -496 -379
-807 -32 -329 -141 -621 -395 -1053 -42 -73 -48 -90 -49 -142 -1 -55 5 -71 73
-205 88 -173 197 -358 258 -438 50 -65 158 -140 438 -304 233 -137 641 -363
654 -363 34 0 885 494 998 579 98 74 194 217 354 531 71 138 71 140 67 207 -3
63 -8 76 -70 178 -211 352 -341 702 -368 995 -33 360 -144 634 -346 859 -116
129 -301 242 -451 275 -88 19 -217 19 -298 0z m273 -383 c45 -23 147 -128 229
-236 33 -44 106 -132 163 -195 128 -143 202 -236 262 -326 61 -92 235 -470
260 -564 25 -95 26 -286 3 -415 -20 -115 -66 -308 -71 -302 -3 2 7 51 21 108
58 242 70 469 30 614 -24 88 -206 473 -265 560 -55 81 -159 209 -261 320 -35
39 -116 135 -180 215 -66 83 -137 160 -165 180 -45 32 -55 35 -119 35 -61 0
-79 -5 -135 -35 -76 -41 -182 -142 -261 -250 -131 -177 -423 -626 -473 -726
-72 -143 -163 -368 -186 -459 -40 -157 -35 -336 15 -522 28 -105 25 -123 -4
-26 -54 177 -66 417 -27 558 25 88 121 324 183 450 60 121 422 671 528 803 67
82 151 159 209 189 87 45 184 55 244 24z m-7 -109 c49 -32 84 -72 212 -242 47
-63 120 -153 163 -200 152 -168 224 -276 324 -487 125 -266 134 -306 127 -543
-4 -132 -12 -226 -30 -330 -27 -152 -76 -374 -83 -368 -1 2 8 58 22 123 31
153 63 396 71 545 11 211 -14 309 -150 590 -89 184 -121 232 -294 432 -72 84
-175 211 -230 282 -116 152 -164 191 -232 190 -112 -2 -225 -102 -372 -329
-52 -80 -150 -230 -218 -333 -123 -187 -207 -346 -275 -520 -54 -139 -67 -195
-73 -327 -6 -144 19 -330 72 -542 19 -76 35 -140 34 -143 -1 -12 -23 53 -55
164 -58 201 -78 330 -78 506 l0 155 42 122 c56 165 162 383 257 528 43 66 123
192 178 280 112 180 151 236 215 313 123 147 269 200 373 134z m186 -434 c117
-113 196 -210 308 -377 79 -117 85 -129 75 -155 -13 -35 -13 -69 0 -61 6 4 10
-9 11 -32 1 -54 17 -13 18 45 1 28 5 41 12 37 7 -5 9 -40 6 -102 -5 -95 -20
-133 -53 -133 -23 0 -84 -66 -84 -91 l1 -24 20 28 c11 15 25 27 29 27 15 0 30
-70 30 -136 0 -53 -3 -63 -27 -86 -52 -47 -76 -58 -130 -58 -133 0 -274 -105
-273 -202 1 -19 4 -17 21 15 22 43 33 49 19 11 -6 -14 -10 -35 -10 -47 1 -15
5 -10 15 16 7 21 17 42 21 45 4 4 4 -1 1 -11 -4 -10 -7 -87 -7 -171 l0 -152
-27 1 c-38 0 -38 -17 0 -35 24 -11 33 -23 35 -45 l4 -29 -21 24 -20 25 15 -41
c16 -40 15 -43 -7 -73 -29 -40 -39 -39 -40 2 0 39 -36 150 -39 122 -3 -33 1
-78 11 -118 15 -58 -1 -65 -20 -9 -10 27 -25 62 -35 76 -31 48 -87 52 -99 7
-7 -29 3 -33 23 -9 l17 21 21 -23 c22 -23 62 -101 62 -120 0 -6 -19 -19 -42
-29 -47 -20 -57 -15 -58 29 0 14 -5 32 -10 40 -7 11 -9 -2 -8 -42 4 -75 -15
-80 -23 -6 -10 94 -68 166 -122 153 -42 -11 -41 -32 1 -31 30 1 39 -4 58 -32
26 -38 49 -135 38 -160 -5 -12 -10 0 -15 36 -8 64 -22 83 -19 27 5 -75 5 -75
-53 -75 l-53 0 -11 96 c-17 139 -37 150 -30 16 4 -57 3 -102 -1 -100 -4 2 -24
14 -44 28 -32 21 -38 31 -38 60 0 19 9 55 20 79 21 46 20 62 -4 42 -21 -18
-46 -75 -46 -107 0 -27 0 -27 -21 -8 -19 17 -21 27 -17 112 2 50 1 92 -4 92
-4 0 -12 -19 -19 -42 -25 -94 -27 -96 -29 -28 -2 59 -3 62 -11 30 -4 -19 -6
-50 -2 -69 4 -26 3 -33 -8 -29 -11 4 -14 45 -15 215 -1 116 -4 232 -8 259 l-7
49 20 -30 c31 -45 25 -18 -9 45 l-31 54 30 -28 c16 -16 40 -51 52 -80 28 -63
40 -37 14 30 -39 102 -110 148 -248 158 -100 7 -140 23 -162 66 -17 32 -20
117 -5 140 7 11 10 -1 10 -40 0 -30 4 -60 8 -67 17 -26 3 116 -17 176 -26 80
-26 89 -1 66 24 -22 26 -8 5 42 -15 36 -15 37 14 67 16 17 52 63 81 101 39 53
50 63 43 40 -18 -68 1 -161 40 -193 8 -7 4 7 -9 35 -13 25 -24 63 -23 82 l0
36 15 -39 c37 -101 94 -144 197 -149 31 -1 57 -5 57 -9 0 -5 -6 -8 -12 -9 -9
0 -9 -2 1 -6 11 -5 11 -7 0 -14 -11 -7 -10 -9 5 -9 23 0 129 53 175 87 l33 26
-33 14 c-18 8 -68 47 -110 88 -48 47 -85 75 -98 75 -24 0 -124 40 -117 47 2 2
21 -3 41 -11 31 -13 35 -14 25 -2 -10 13 -65 36 -118 52 -17 5 -8 20 83 144
83 112 230 270 251 270 7 0 33 -16 59 -35 57 -44 92 -52 133 -31 17 9 34 16
37 16 3 0 3 -20 -1 -45 -7 -52 2 -118 17 -110 5 4 9 25 9 48 0 58 17 115 47
160 14 20 27 36 29 34 2 -2 -3 -25 -11 -52 -21 -69 -17 -101 4 -35 28 89 48
119 79 120 7 0 56 -42 109 -92z m-633 -561 c21 -15 24 -70 6 -92 -15 -18 -71
-20 -88 -3 -17 17 -15 74 4 92 19 19 54 21 78 3z m66 -161 c0 -2 -7 -7 -16
-10 -8 -3 -12 -2 -9 4 6 10 25 14 25 6z m1227 -808 c-3 -8 -6 -5 -6 6 -1 11 2
17 5 13 3 -3 4 -12 1 -19z m-140 -240 c-3 -8 -6 -5 -6 6 -1 11 2 17 5 13 3 -3
4 -12 1 -19z m-1518 -345 c32 -40 88 -86 177 -148 142 -98 239 -171 383 -289
52 -42 100 -75 107 -72 7 3 161 104 341 225 318 213 403 280 474 376 31 42 43
54 31 30 -58 -110 -151 -189 -510 -431 -184 -124 -338 -226 -342 -227 -4 -1
-81 57 -171 129 -195 156 -262 206 -349 264 -116 76 -180 150 -249 287 -46 92
-38 90 16 -4 25 -46 67 -109 92 -140z m619 -180 c2 -12 14 -28 26 -37 20 -13
26 -13 44 0 11 8 22 24 24 37 2 17 10 22 33 22 27 0 30 -3 30 -30 0 -25 -4
-30 -25 -31 -14 0 -34 -5 -45 -12 -19 -11 -19 -13 -2 -26 9 -7 27 -11 40 -9
48 9 76 -65 35 -91 -25 -15 -50 3 -62 41 -11 41 -46 60 -75 42 -11 -8 -21 -21
-21 -29 0 -25 -30 -60 -51 -60 -11 0 -24 11 -31 25 -9 19 -7 29 7 51 14 21 22
25 45 20 19 -3 33 0 41 10 16 20 3 32 -41 36 -38 3 -51 27 -29 54 18 21 53 14
57 -13z"/>
<path d="M2515 2915 c-14 -68 -34 -117 -60 -143 l-25 -25 0 24 c0 13 -4 31 -9
38 -8 12 -11 9 -16 -12 -8 -32 2 -80 14 -72 5 3 29 -13 52 -35 24 -22 48 -39
54 -37 5 2 16 16 23 31 8 15 27 32 43 38 37 13 36 20 -5 55 -33 27 -40 46 -59
158 -2 13 -7 5 -12 -20z"/>
<path d="M2883 2915 c-28 -15 -57 -33 -64 -41 -7 -9 8 -5 37 10 27 13 60 27
74 31 25 6 25 6 -4 -18 -15 -14 -47 -30 -70 -37 -46 -14 -88 -41 -128 -82 -14
-16 -40 -31 -57 -34 -22 -5 -31 -12 -31 -26 0 -27 24 -81 43 -97 20 -16 23 -2
5 19 -7 8 -2 6 12 -6 14 -11 34 -26 45 -34 18 -13 19 -13 8 1 -11 14 -3 15 72
17 47 0 95 3 108 7 19 5 18 3 -8 -19 -41 -35 -17 -33 31 3 57 42 80 69 109
133 19 42 25 70 23 105 -3 44 -6 49 -43 70 -52 30 -99 29 -162 -2z m15 -137
c18 -18 14 -46 -9 -58 -26 -14 -49 3 -49 35 0 32 35 46 58 23z"/>
<path d="M2855 2760 c-8 -14 3 -30 21 -30 8 0 14 9 14 20 0 21 -24 28 -35 10z"/>
<path d="M3246 2685 c-9 -26 -7 -32 5 -12 6 10 9 21 6 23 -2 3 -7 -2 -11 -11z"/>
<path d="M2441 2501 c-63 -63 -87 -163 -57 -236 17 -40 30 -48 16 -9 -15 39
-12 46 10 24 11 -11 26 -20 34 -20 20 0 46 39 46 67 0 13 5 23 10 23 6 0 10
-10 10 -23 0 -34 29 -70 51 -64 22 6 23 3 9 -24 -6 -10 -8 -19 -5 -19 15 0 45
90 45 133 0 75 -67 187 -112 187 -10 0 -35 -17 -57 -39z"/>
<path d="M2155 2797 c-9 -36 3 -87 16 -66 5 7 9 25 9 39 0 14 -4 32 -9 39 -8
12 -11 9 -16 -12z"/>
<path d="M627 4262 c-38 -41 -10 -112 44 -112 30 0 43 9 58 38 33 62 -56 126
-102 74z m61 -21 c20 -12 11 -56 -12 -56 -27 0 -43 29 -27 49 15 18 21 19 39
7z"/>
<path d="M4286 4265 c-23 -23 -28 -52 -15 -77 16 -30 28 -38 60 -38 53 0 80
77 41 113 -23 21 -66 22 -86 2z m68 -38 c8 -12 7 -21 -6 -33 -22 -22 -48 -11
-48 20 0 37 34 45 54 13z"/>
</g>
</svg>
